<svg width="120" height="120" viewBox="0 0 120 120" fill="none" xmlns="http://www.w3.org/2000/svg">
  <defs>
    <linearGradient id="pythonGrad" x1="0%" y1="0%" x2="100%" y2="100%">
      <stop offset="0%" style="stop-color:#306998;stop-opacity:1" />
      <stop offset="100%" style="stop-color:#4b8bbe;stop-opacity:1" />
    </linearGradient>
    <filter id="glow">
      <feGaussianBlur stdDeviation="3" result="coloredBlur"/>
      <feMerge>
        <feMergeNode in="coloredBlur"/>
        <feMergeNode in="SourceGraphic"/>
      </feMerge>
    </filter>
  </defs>
  <rect x="10" y="10" width="100" height="100" rx="15" fill="url(#pythonGrad)" filter="url(#glow)"/>
  <path d="M35 40 Q35 30 45 30 Q55 30 55 40 Q55 50 45 50 Q35 50 35 40" fill="white"/>
  <path d="M65 70 Q65 80 75 80 Q85 80 85 70 Q85 60 75 60 Q65 60 65 70" fill="white"/>
  <circle cx="45" cy="40" r="2" fill="#306998"/>
  <circle cx="75" cy="70" r="2" fill="#306998"/>
  <text x="60" y="95" text-anchor="middle" fill="white" font-family="Arial, sans-serif" font-size="10">Python</text>
  <circle cx="30" cy="30" r="3" fill="#38b6ff" opacity="0.8"/>
  <circle cx="90" cy="30" r="2" fill="#49e8ff" opacity="0.6"/>
  <circle cx="30" cy="90" r="2" fill="#4be7ff" opacity="0.7"/>
  <circle cx="90" cy="90" r="3" fill="#38b6ff" opacity="0.9"/>
</svg>